<svg width="15" height="15" viewBox="0 0 15 15" fill="none" xmlns="http://www.w3.org/2000/svg">
<path d="M7.04688 9.75V9.70312C7.05208 9.20573 7.10417 8.8099 7.20313 8.51562C7.30208 8.22135 7.44271 7.98307 7.625 7.80078C7.80729 7.61849 8.02604 7.45052 8.28125 7.29687C8.4349 7.20312 8.57292 7.09245 8.69531 6.96484C8.81771 6.83464 8.91406 6.6849 8.98437 6.51562C9.05729 6.34635 9.09375 6.15885 9.09375 5.95312C9.09375 5.69792 9.03385 5.47656 8.91406 5.28906C8.79427 5.10156 8.63411 4.95703 8.43359 4.85547C8.23307 4.75391 8.01042 4.70312 7.76563 4.70312C7.55208 4.70312 7.34635 4.7474 7.14844 4.83594C6.95052 4.92448 6.78516 5.0638 6.65234 5.25391C6.51953 5.44401 6.44271 5.69271 6.42188 6H5.4375C5.45833 5.55729 5.57292 5.17839 5.78125 4.86328C5.99219 4.54818 6.26953 4.30729 6.61328 4.14062C6.95964 3.97396 7.34375 3.89062 7.76563 3.89062C8.22396 3.89062 8.6224 3.98177 8.96094 4.16406C9.30208 4.34635 9.5651 4.59635 9.75 4.91406C9.9375 5.23177 10.0313 5.59375 10.0313 6C10.0313 6.28646 9.98698 6.54557 9.89844 6.77734C9.8125 7.00911 9.6875 7.21615 9.52344 7.39844C9.36198 7.58073 9.16667 7.74219 8.9375 7.88281C8.70833 8.02604 8.52474 8.17708 8.38672 8.33594C8.2487 8.49219 8.14844 8.67839 8.08594 8.89453C8.02344 9.11068 7.98958 9.38021 7.98437 9.70312V9.75H7.04688ZM7.54688 12.0625C7.35417 12.0625 7.1888 11.9935 7.05078 11.8555C6.91276 11.7174 6.84375 11.5521 6.84375 11.3594C6.84375 11.1667 6.91276 11.0013 7.05078 10.8633C7.1888 10.7253 7.35417 10.6562 7.54688 10.6562C7.73958 10.6562 7.90495 10.7253 8.04297 10.8633C8.18099 11.0013 8.25 11.1667 8.25 11.3594C8.25 11.487 8.21745 11.6042 8.15234 11.7109C8.08984 11.8177 8.00521 11.9036 7.89844 11.9687C7.79427 12.0313 7.67708 12.0625 7.54688 12.0625Z" fill="#2E2E2E"/>
<circle cx="7.5" cy="7.5" r="7" stroke="#2E2E2E"/>
</svg>
